Coordinates
version=1
nRows=20
nColumns=38
inDegrees=no

Units are S.I. units (second, meters, Newtons, ...)
If the header above contains a line with 'inDegrees', this indicates whether rotational values are in degrees (yes) or radians (no).

endheader
time	pelvis_tilt	pelvis_list	pelvis_rotation	pelvis_tx	pelvis_ty	pelvis_tz	hip_flexion_r	hip_adduction_r	hip_rotation_r	knee_angle_r	ankle_angle_r	subtalar_angle_r	mtp_angle_r	hip_flexion_l	hip_adduction_l	hip_rotation_l	knee_angle_l	ankle_angle_l	subtalar_angle_l	mtp_angle_l	lumbar_extension	lumbar_bending	lumbar_rotation	arm_flex_r	arm_add_r	arm_rot_r	elbow_flex_r	pro_sup_r	wrist_flex_r	wrist_dev_r	arm_flex_l	arm_add_l	arm_rot_l	elbow_flex_l	pro_sup_l	wrist_flex_l	wrist_dev_l
0.58	0.235816	1.30876	1.44525	0.652203	0.0913796	1.0155	0.338641	-0.034333	0.0159441	1.11165	-0.392264	0	0	0.460629	-0.0187139	-0.300732	0.41483	-0.0209075	0	0	0.0602363	0.0115451	-0.0199465	-0.156105	-0.33511	0.455902	0.460628	0.757046	0	0	-0.118085	-0.509785	0.359944	0.692878	1.1217	0	0
0.59	0.262338	1.30821	1.42477	0.649878	0.103666	1.01781	0.35678	-0.0274836	0.0200546	1.11569	-0.363565	0	0	0.444227	-0.0232665	-0.298604	0.407386	-0.0208528	0	0	0.0591015	0.0205227	-0.0267357	-0.154344	-0.339396	0.453717	0.462877	0.761892	0	0	-0.115318	-0.509556	0.349227	0.700488	1.13148	0	0
0.6	0.279096	1.3088	1.41373	0.64766	0.116009	1.01995	0.380151	-0.0275945	0.0135764	1.13043	-0.338386	0	0	0.426031	-0.0251765	-0.298733	0.399755	-0.0210662	0	0	0.0573768	0.0261483	-0.033089	-0.153874	-0.343453	0.450789	0.467212	0.766411	0	0	-0.113665	-0.511182	0.338125	0.710858	1.14139	0	0
0.61	0.294701	1.30891	1.40269	0.645665	0.128216	1.02211	0.402959	-0.0276313	0.00742337	1.13784	-0.313685	0	0	0.408012	-0.0273437	-0.298509	0.391476	-0.0216661	0	0	0.055964	0.0314958	-0.0379377	-0.153404	-0.347195	0.447516	0.471387	0.770837	0	0	-0.111197	-0.51291	0.327827	0.720793	1.15017	0	0
0.62	0.309106	1.30889	1.39213	0.643859	0.140302	1.02425	0.425239	-0.027992	0.000878284	1.13999	-0.288843	0	0	0.390061	-0.0296219	-0.297803	0.382183	-0.0234595	0	0	0.0542656	0.0364297	-0.0416751	-0.152876	-0.350599	0.443802	0.475615	0.775447	0	0	-0.108004	-0.515047	0.318532	0.730935	1.15782	0	0
0.63	0.323279	1.30886	1.38142	0.642212	0.152314	1.02636	0.446505	-0.0285866	-0.00689534	1.13741	-0.264866	0	0	0.372204	-0.0321344	-0.296544	0.371894	-0.0258224	0	0	0.0522508	0.0411803	-0.0445457	-0.152405	-0.353615	0.439564	0.479698	0.780102	0	0	-0.104171	-0.517501	0.310231	0.741326	1.16463	0	0
0.64	0.337371	1.30845	1.37057	0.640686	0.164234	1.02835	0.467291	-0.0294802	-0.0157808	1.13073	-0.243686	0	0	0.355009	-0.0351184	-0.295142	0.361382	-0.0283811	0	0	0.0503116	0.0458972	-0.0466945	-0.151866	-0.356508	0.43586	0.483489	0.783879	0	0	-0.0995155	-0.520352	0.303814	0.751744	1.16947	0	0
0.65	0.351471	1.30777	1.35979	0.639224	0.17602	1.03023	0.487694	-0.0309739	-0.0254165	1.1197	-0.219764	0	0	0.338262	-0.0381261	-0.293108	0.350568	-0.0318573	0	0	0.0479853	0.0505993	-0.0488443	-0.151398	-0.359328	0.43104	0.487739	0.78835	0	0	-0.094906	-0.522857	0.29589	0.762726	1.17522	0	0
0.66	0.364493	1.30584	1.34974	0.637856	0.187666	1.0319	0.507903	-0.0322522	-0.0347913	1.10311	-0.198782	0	0	0.323058	-0.0411539	-0.2908	0.340109	-0.0352217	0	0	0.0469558	0.0551859	-0.0502598	-0.150837	-0.362082	0.427579	0.491344	0.792286	0	0	-0.089788	-0.52558	0.289668	0.77373	1.17992	0	0
0.67	0.377352	1.30319	1.34011	0.636544	0.19923	1.03338	0.527316	-0.0336483	-0.0452231	1.08167	-0.176557	0	0	0.308652	-0.0443195	-0.288133	0.329838	-0.0387764	0	0	0.0464903	0.0597963	-0.0517836	-0.150223	-0.364724	0.424643	0.494858	0.796257	0	0	-0.0847717	-0.52816	0.28314	0.784916	1.18512	0	0
0.68	0.390108	1.29987	1.33124	0.635237	0.210729	1.03465	0.545761	-0.0354935	-0.0572631	1.0554	-0.155007	0	0	0.294942	-0.0475073	-0.284862	0.319605	-0.0423642	0	0	0.0466332	0.064431	-0.0535967	-0.149692	-0.367241	0.421955	0.497972	0.799477	0	0	-0.0796957	-0.530246	0.276062	0.795994	1.19025	0	0
0.69	0.401299	1.29631	1.3247	0.633936	0.222183	1.03578	0.562836	-0.0382169	-0.070797	1.02437	-0.136887	0	0	0.281552	-0.050074	-0.280114	0.308999	-0.0460005	0	0	0.0469135	0.0687403	-0.0560236	-0.148688	-0.369584	0.420343	0.500369	0.80271	0	0	-0.0744314	-0.531902	0.268522	0.80654	1.19575	0	0
0.7	0.411035	1.29338	1.31989	0.632651	0.233704	1.03683	0.577298	-0.0416592	-0.0852698	0.988077	-0.122663	0	0	0.267282	-0.0522131	-0.27633	0.297669	-0.0500417	0	0	0.0466235	0.0724642	-0.0585447	-0.147213	-0.37158	0.419856	0.50167	0.806047	0	0	-0.0690693	-0.533181	0.260646	0.816687	1.20162	0	0
0.71	0.41957	1.29139	1.31614	0.631437	0.245346	1.03775	0.589338	-0.0455903	-0.0997104	0.946906	-0.112012	0	0	0.251881	-0.0540821	-0.274127	0.286158	-0.0543058	0	0	0.0455291	0.0755526	-0.0609566	-0.145477	-0.373258	0.420135	0.502361	0.809534	0	0	-0.0640726	-0.534552	0.252567	0.827104	1.20778	0	0
0.72	0.427289	1.29013	1.31325	0.630278	0.257107	1.03849	0.599048	-0.0499495	-0.114524	0.901403	-0.104699	0	0	0.23566	-0.056006	-0.273204	0.274943	-0.0586356	0	0	0.0438206	0.0780794	-0.0635391	-0.143407	-0.37455	0.420869	0.502326	0.812606	0	0	-0.0593167	-0.536286	0.245031	0.837552	1.2147	0	0
0.73	0.419097	1.29938	1.32986	0.629074	0.269719	1.03857	0.574288	-0.0680287	-0.108409	0.776093	-0.113332	0	0	0.208457	-0.0513218	-0.278951	0.26357	-0.0624118	0	0	0.0337937	0.0708053	-0.0697512	-0.145546	-0.374403	0.416478	0.509938	0.816429	0	0	-0.0588289	-0.544868	0.236281	0.857596	1.22059	0	0
0.74	0.42475	1.29931	1.32877	0.628071	0.281697	1.03895	0.580433	-0.0728044	-0.121005	0.726697	-0.115699	0	0	0.191324	-0.0529213	-0.28032	0.253659	-0.0659484	0	0	0.0311494	0.0722442	-0.0720656	-0.143384	-0.375112	0.416728	0.509201	0.819644	0	0	-0.0535985	-0.547348	0.231843	0.866894	1.22532	0	0
0.75	0.450301	1.29224	1.30449	0.62724	0.293227	1.03992	0.608212	-0.0605123	-0.15865	0.737895	-0.105025	0	0	0.18103	-0.0621948	-0.277918	0.244772	-0.0710501	0	0	0.0323252	0.0834344	-0.0719189	-0.134409	-0.37645	0.423695	0.498269	0.822534	0	0	-0.0455105	-0.542524	0.225541	0.866861	1.23388	0	0
0.76	0.454607	1.29267	1.30525	0.626361	0.305592	1.0398	0.607475	-0.0634829	-0.172675	0.674258	-0.104171	0	0	0.164107	-0.0639995	-0.27974	0.237383	-0.075176	0	0	0.0303793	0.0837783	-0.0771137	-0.129719	-0.376589	0.430047	0.494182	0.825018	0	0	-0.0443889	-0.54462	0.215997	0.876605	1.24313	0	0
0.77	0.4596	1.29366	1.30532	0.625544	0.318098	1.03944	0.604532	-0.0654765	-0.185723	0.606383	-0.110058	0	0	0.146666	-0.066291	-0.282926	0.230674	-0.0780519	0	0	0.0276021	0.0840273	-0.0822821	-0.125174	-0.376961	0.435657	0.490741	0.826732	0	0	-0.0431634	-0.547605	0.208492	0.88636	1.25086	0	0
